<svg width="500" height="400" viewBox="0 0 500 400" fill="none" xmlns="http://www.w3.org/2000/svg">
  <!-- Background Elements -->
  <rect width="500" height="400" fill="#EFF6FF" />
  <circle cx="400" cy="80" r="40" fill="#DBEAFE" />
  <circle cx="100" cy="330" r="50" fill="#DBEAFE" />

  <!-- Building/Office -->
  <rect x="150" y="100" width="200" height="220" rx="8" fill="#3B82F6" />
  <rect x="170" y="120" width="40" height="40" rx="4" fill="#DBEAFE" />
  <rect x="230" y="120" width="40" height="40" rx="4" fill="#DBEAFE" />
  <rect x="290" y="120" width="40" height="40" rx="4" fill="#DBEAFE" />
  <rect x="170" y="180" width="40" height="40" rx="4" fill="#DBEAFE" />
  <rect x="230" y="180" width="40" height="40" rx="4" fill="#DBEAFE" />
  <rect x="290" y="180" width="40" height="40" rx="4" fill="#DBEAFE" />
  <rect x="200" y="270" width="100" height="50" rx="4" fill="#DBEAFE" />

  <!-- People silhouettes -->
  <circle cx="120" cy="280" r="20" fill="#2563EB" />
  <rect x="110" y="300" width="20" height="30" rx="8" fill="#2563EB" />

  <circle cx="80" cy="290" r="15" fill="#2563EB" />
  <rect x="72" y="305" width="16" height="25" rx="6" fill="#2563EB" />

  <circle cx="380" cy="270" r="18" fill="#2563EB" />
  <rect x="371" y="288" width="18" height="27" rx="7" fill="#2563EB" />

  <!-- Abstract elements -->
  <path d="M50 160C50 149.5 58.5 141 69 141H131C141.5 141 150 149.5 150 160V160C150 170.5 141.5 179 131 179H69C58.5 179 50 170.5 50 160V160Z" fill="#60A5FA" />
  <path d="M350 160C350 149.5 358.5 141 369 141H431C441.5 141 450 149.5 450 160V160C450 170.5 441.5 179 431 179H369C358.5 179 350 170.5 350 160V160Z" fill="#60A5FA" />

  <!-- Document icons -->
  <rect x="360" y="200" width="40" height="50" rx="4" fill="#DBEAFE" stroke="#3B82F6" stroke-width="2" />
  <line x1="370" y1="210" x2="390" y2="210" stroke="#3B82F6" stroke-width="2" />
  <line x1="370" y1="220" x2="390" y2="220" stroke="#3B82F6" stroke-width="2" />
  <line x1="370" y1="230" x2="380" y2="230" stroke="#3B82F6" stroke-width="2" />

  <rect x="390" y="230" width="40" height="50" rx="4" fill="#DBEAFE" stroke="#3B82F6" stroke-width="2" />
  <line x1="400" y1="240" x2="420" y2="240" stroke="#3B82F6" stroke-width="2" />
  <line x1="400" y1="250" x2="420" y2="250" stroke="#3B82F6" stroke-width="2" />
  <line x1="400" y1="260" x2="410" y2="260" stroke="#3B82F6" stroke-width="2" />
</svg>
