<svg width="500" height="400" viewBox="0 0 500 400" fill="none" xmlns="http://www.w3.org/2000/svg">
  <!-- Background Elements -->
  <rect width="500" height="400" fill="#EFF6FF" />
  <circle cx="420" cy="70" r="50" fill="#DBEAFE" />
  <circle cx="80" cy="340" r="40" fill="#DBEAFE" />

  <!-- Document/Form -->
  <rect x="160" y="80" width="180" height="240" rx="8" fill="white" stroke="#3B82F6" stroke-width="2" />
  <line x1="180" y1="120" x2="320" y2="120" stroke="#BFDBFE" stroke-width="2" />
  <line x1="180" y1="160" x2="320" y2="160" stroke="#BFDBFE" stroke-width="2" />
  <line x1="180" y1="200" x2="320" y2="200" stroke="#BFDBFE" stroke-width="2" />
  <line x1="180" y1="240" x2="320" y2="240" stroke="#BFDBFE" stroke-width="2" />

  <!-- Form elements -->
  <rect x="180" y="130" width="15" height="15" rx="3" stroke="#3B82F6" stroke-width="2" />
  <rect x="180" y="170" width="15" height="15" rx="3" stroke="#3B82F6" stroke-width="2" />
  <rect x="180" y="210" width="15" height="15" rx="3" fill="#3B82F6" />

  <rect x="200" y="280" width="100" height="30" rx="15" fill="#3B82F6" />

  <!-- Person with clipboard -->
  <circle cx="400" cy="200" r="25" fill="#2563EB" /> <!-- Head -->
  <rect x="385" y="225" width="30" height="60" rx="10" fill="#2563EB" /> <!-- Body -->
  <rect x="330" y="180" width="40" height="60" rx="4" fill="#DBEAFE" stroke="#3B82F6" stroke-width="2" /> <!-- Clipboard -->
  <line x1="340" y1="195" x2="360" y2="195" stroke="#3B82F6" stroke-width="2" />
  <line x1="340" y1="210" x2="360" y2="210" stroke="#3B82F6" stroke-width="2" />
  <line x1="340" y1="225" x2="350" y2="225" stroke="#3B82F6" stroke-width="2" />

  <!-- Another person -->
  <circle cx="90" cy="200" r="20" fill="#2563EB" /> <!-- Head -->
  <rect x="80" y="220" width="20" height="45" rx="8" fill="#2563EB" /> <!-- Body -->

  <!-- Abstract elements -->
  <path d="M70 140C70 129.5 78.5 121 89 121H131C141.5 121 150 129.5 150 140V140C150 150.5 141.5 159 131 159H89C78.5 159 70 150.5 70 140V140Z" fill="#60A5FA" />
  <path d="M60 100C60 94.4772 64.4772 90 70 90H100C105.523 90 110 94.4772 110 100V100C110 105.523 105.523 110 100 110H70C64.4772 110 60 105.523 60 100V100Z" fill="#93C5FD" />
</svg>
